<?xml version="1.0" standalone="no"?>
<svg xmlns="http://www.w3.org/2000/svg" viewBox="0 0 580.4430775676935 402.2030775676935" width="580.4430775676935" height="402.2030775676935"><rect fill="none" stroke="#51be95" stroke-width="4" width="576.4430775676935" height="398.2030775676935" x="2" y="2"></rect><g fill="#0466b2" color="#0466b2" transform="translate(190.24 12) scale(7.8792308)"><svg width="48.0" height="48.0" x="0.0" y="0.0" viewBox="0 0 48 48"><path fill="currentColor" fill-rule="nonzero" d="M47.02 19.92c.24 1.34.38 2.72.37 4.13 0 .55-.04 1.08-.08 1.62-5 5.07-11.94 8.22-19.6 8.22h-7.87c-5.32 0-10.03 2.66-12.88 6.72-.94-.96-1.81-2.01-2.58-3.12 3.61-4.59 9.19-7.54 15.47-7.54h7.87c7.98 0 15.02-3.97 19.3-10.03zm-27.17 6.1c-6.96 0-13.2 3.03-17.53 7.82-.6-1.32-1.08-2.7-1.44-4.14 4.95-4.71 11.62-7.62 18.97-7.62h7.87c7.31 0 13.46-5.03 15.22-11.8 1 1.39 1.87 2.88 2.55 4.47-3.16 6.66-9.92 11.27-17.77 11.27h-7.87zm0-11.81l7.87-.02c4.34 0 7.87-3.53 7.87-7.87V3.61c1.41.82 2.73 1.78 3.93 2.86-.08 6.45-5.34 11.67-11.8 11.67h-7.87c-7.43 0-14.24 2.6-19.63 6.91-.01-.33-.05-.66-.05-1 0-1.4.15-2.75.38-4.08 5.56-3.63 12.18-5.76 19.3-5.76zm0-3.94c-6.35 0-12.33 1.55-17.65 4.24C5.87 6.23 14.15.44 23.79.44c2.76 0 5.4.5 7.87 1.37v4.52c0 2.17-1.77 3.94-3.94 3.94h-7.87zm7.88 27.55c6.83 0 13.14-2.21 18.32-5.93-3.24 9.18-11.96 15.77-22.25 15.77-5.16 0-9.92-1.68-13.81-4.49 2.11-3.22 5.74-5.35 9.87-5.35h7.87z"></path></svg></g><path fill="#0466b2" fill-rule="nonzero" d="M25.48 33.36L25.48 33.36L24.44 30.08Q19.80 33.44 15.48 33.44L15.48 33.44Q11.56 33.44 8.64 32.02Q5.72 30.60 3.80 28.26Q1.88 25.92 0.94 22.94Q0 19.96 0 16.84L0 16.84Q0 13.68 1.10 10.66Q2.20 7.64 4.34 5.28Q6.48 2.92 9.56 1.46Q12.64 0 16.60 0L16.60 0Q22.12 0 26.76 2.40L26.76 2.40L26.76 10.08Q26.04 10.20 25.48 10.20L25.48 10.20Q24.88 10.20 24.48 10.08L24.48 10.08L23.20 3.40Q20.64 1.80 16.12 1.80L16.12 1.80Q13.60 1.80 11.56 2.94Q9.52 4.08 8.04 6.02Q6.56 7.96 5.76 10.58Q4.96 13.20 4.96 16.16L4.96 16.16Q4.96 19.32 5.70 22Q6.44 24.68 7.80 26.64Q9.16 28.60 11.10 29.70Q13.04 30.80 15.44 30.80L15.44 30.80Q19.32 30.80 23.08 28.68L23.08 28.68L23.08 20.16L19.84 19.76Q19.76 19.56 19.76 19.12L19.76 19.12Q19.76 18.92 19.76 18.72Q19.76 18.52 19.84 18.28L19.84 18.28Q20.96 18.36 22.30 18.40Q23.64 18.44 25.32 18.44L25.32 18.44Q28.24 18.44 30.84 18.32L30.84 18.32Q30.96 18.68 30.96 19.04L30.96 19.04Q30.96 19.40 30.84 19.76L30.84 19.76L27.52 20.24Q27.44 21 27.40 22.16Q27.36 23.32 27.36 24.92L27.36 24.92L27.36 28.96L26.96 33.36Q26.80 33.44 26.64 33.44Q26.48 33.44 26.28 33.44L26.28 33.44Q26.08 33.44 25.88 33.44Q25.68 33.44 25.48 33.36ZM64.08 26.12L64.08 26.12L64.08 3.12L52.00 33.84L50.96 33.84L39.32 4.12L39.32 26.12Q39.32 29.28 39.48 30.80L39.48 30.80L43.20 31.28Q43.44 32 43.20 32.72L43.20 32.72Q39.76 32.64 38.32 32.64L38.32 32.64Q35.92 32.64 33.48 32.76L33.48 32.76Q33.32 31.88 33.48 31.28L33.48 31.28L37.12 30.88L37.12 7.32Q37.12 4.16 36.96 2.64L36.96 2.64L33.64 2.16Q33.40 1.48 33.64 0.80L33.64 0.80L42.44 0.80L52.48 27.12L62.76 0.80Q63.68 0.84 65.56 0.84L65.56 0.84Q65.96 0.84 71.84 0.72L71.84 0.72Q72.08 1.44 71.84 2.16L71.84 2.16L68.52 2.64Q68.36 4.16 68.36 7.32L68.36 7.32L68.36 30.88L71.60 31.28Q71.76 31.88 71.60 32.76L71.60 32.76Q69.08 32.64 66.12 32.64L66.12 32.64Q63.96 32.64 60.60 32.72L60.60 32.72Q60.36 31.72 60.60 31.28L60.60 31.28L63.92 30.80Q64.08 29.28 64.08 26.12ZM79.08 26.16L79.08 26.16L79.08 2.56L75.84 2.12Q75.60 1.40 75.84 0.68L75.84 0.68L81.32 0.80L97.48 0.80L97.52 10.08Q96.64 10.24 96.04 10.08L96.04 10.08L94.16 2.84L83.36 2.84L83.36 14.84L89.76 14.72L90.68 10.80Q91.28 10.64 92.16 10.80L92.16 10.80Q92 13.04 92 15.96L92 15.96Q92 18.64 92.12 21.16L92.12 21.16Q91.40 21.40 90.68 21.16L90.68 21.16L89.80 17L83.36 16.88L83.36 30.60L95.36 30.60L97.24 23.36Q97.84 23.20 98.72 23.36L98.72 23.36L98.68 32.64L81.32 32.64L75.60 32.76Q75.36 32.04 75.60 31.32L75.60 31.32L78.92 30.88Q79.08 28.84 79.08 26.16Z" transform="translate(12 12) scale(1.654)"></path><path fill="#0466b2" fill-rule="nonzero" d="M25.72 27.08L25.72 27.08Q26.40 27.52 26.76 28.60L26.76 28.60Q21.20 33.80 15.48 33.80L15.48 33.80Q11.56 33.80 8.64 32.38Q5.72 30.96 3.80 28.62Q1.88 26.28 0.94 23.30Q0 20.32 0 17.20L0 17.20Q0 14.04 1.08 11.02Q2.16 8 4.24 5.62Q6.32 3.24 9.38 1.80Q12.44 0.36 16.36 0.36L16.36 0.36Q21.52 0.36 25.96 2.76L25.96 2.76L25.96 10.44Q25.24 10.56 24.68 10.56L24.68 10.56Q24.08 10.56 23.68 10.44L23.68 10.44L22.40 3.76Q19.96 2.16 15.88 2.16L15.88 2.16Q13.36 2.16 11.34 3.30Q9.32 4.44 7.90 6.38Q6.48 8.32 5.72 10.94Q4.96 13.56 4.96 16.52L4.96 16.52Q4.96 19.68 5.70 22.36Q6.44 25.04 7.80 27Q9.16 28.96 11.10 30.06Q13.04 31.16 15.44 31.16L15.44 31.16Q18.32 31.16 21 30.04Q23.68 28.92 25.72 27.08ZM54.44 33L35.88 33L30.16 33.12Q29.92 32.40 30.16 31.68L30.16 31.68L33.48 31.24Q33.64 29.20 33.64 26.52L33.64 26.52L33.64 2.92L30.40 2.52Q30.24 1.92 30.40 1.04L30.40 1.04Q32.60 1.20 35.88 1.20L35.88 1.20Q38.80 1.20 41.40 1.08L41.40 1.08Q41.64 1.80 41.40 2.52L41.40 2.52L38.08 3Q37.92 4.52 37.92 7.68L37.92 7.68L37.92 30.96L51.12 30.96L53 23.72Q53.60 23.56 54.48 23.72L54.48 23.72L54.44 33ZM65.08 7.68L65.08 7.68L65.08 31.24L68.32 31.64Q68.48 32.24 68.32 33.12L68.32 33.12Q65.80 33 62.84 33L62.84 33Q60.68 33 57.32 33.08L57.32 33.08Q57.08 32.36 57.32 31.64L57.32 31.64L60.64 31.16Q60.80 29.64 60.80 26.48L60.80 26.48L60.80 2.92L57.56 2.52Q57.40 1.92 57.56 1.04L57.56 1.04Q59.76 1.20 63.04 1.20L63.04 1.20Q65.96 1.20 68.56 1.08L68.56 1.08Q68.80 1.80 68.56 2.52L68.56 2.52L65.24 3Q65.08 4.52 65.08 7.68ZM102.76 26.48L102.76 26.48L102.76 3.48L90.68 34.20L89.64 34.20L78 4.48L78 26.48Q78 29.64 78.16 31.16L78.16 31.16L81.88 31.64Q82.12 32.36 81.88 33.08L81.88 33.08Q78.44 33 77 33L77 33Q74.60 33 72.16 33.12L72.16 33.12Q72 32.24 72.16 31.64L72.16 31.64L75.80 31.24L75.80 7.68Q75.80 4.52 75.64 3L75.64 3L72.32 2.52Q72.08 1.84 72.32 1.16L72.32 1.16L81.12 1.16L91.16 27.48L101.44 1.16Q102.36 1.20 104.24 1.20L104.24 1.20Q104.64 1.20 110.52 1.08L110.52 1.08Q110.76 1.80 110.52 2.52L110.52 2.52L107.20 3Q107.04 4.52 107.04 7.68L107.04 7.68L107.04 31.24L110.28 31.64Q110.44 32.24 110.28 33.12L110.28 33.12Q107.76 33 104.80 33L104.80 33Q102.64 33 99.28 33.08L99.28 33.08Q99.04 32.08 99.28 31.64L99.28 31.64L102.60 31.16Q102.76 29.64 102.76 26.48ZM120.88 21.28L117.32 31.24L120.56 31.64Q120.72 32.24 120.56 33.12L120.56 33.12Q118.04 33 116.32 33L116.32 33Q115.36 33 112 33.08L112 33.08Q111.76 32.36 112 31.64L112 31.64L114.64 31.16Q115.28 30.20 116.24 27.60L116.24 27.60L126.56 0L127.96 0L139.56 31.24L142.80 31.64Q142.96 32.24 142.80 33.12L142.80 33.12Q140.28 33 137.16 33L137.16 33Q134.84 33 131.48 33.08L131.48 33.08Q131.24 32.36 131.48 31.64L131.48 31.64L134.80 31.16L131.28 21.28L120.88 21.28ZM126.20 6.04L126.20 6.04L126.16 6.04Q125.68 7.92 124.60 10.96L124.60 10.96L121.60 19.28L130.56 19.28L127.64 10.96Q126.80 8.52 126.20 6.04Z" transform="translate(12 75.957) scale(1.143)"></path><path fill="#0466b2" fill-rule="nonzero" d="M3.72 25.48L3.72 25.48L3.72 1.88L0.48 1.44Q0.24 0.72 0.48 0L0.48 0L5.96 0.12L22.12 0.12L22.16 9.40Q21.28 9.56 20.68 9.40L20.68 9.40L18.80 2.16L8 2.16L8 14.16L14.40 14.04L15.32 10.12Q15.92 9.96 16.80 10.12L16.80 10.12Q16.64 12.36 16.64 15.28L16.64 15.28Q16.64 17.96 16.76 20.48L16.76 20.48Q16.04 20.72 15.32 20.48L15.32 20.48L14.44 16.32L8 16.20L8 29.92L20 29.92L21.88 22.68Q22.48 22.52 23.36 22.68L23.36 22.68L23.32 31.96L5.96 31.96L0.24 32.08Q0 31.36 0.24 30.64L0.24 30.64L3.56 30.20Q3.72 28.16 3.72 25.48Z" transform="translate(12 123.031) scale(7.025)"></path><path fill="#0466b2" fill-rule="nonzero" d="M2.28 23.40L3.56 29.88Q5.88 31.48 10.08 31.48L10.08 31.48Q12.92 31.48 14.34 29.84Q15.76 28.20 15.76 25.92L15.76 25.92Q15.76 24.72 15.56 23.90Q15.36 23.08 14.70 22.04Q14.04 21 12.60 19.96Q11.16 18.92 8.84 17.76L8.84 17.76Q6.12 16.40 4.44 15.20Q2.76 14 1.92 12.72Q1.08 11.44 0.80 10.28Q0.52 9.12 0.52 7.40L0.52 7.40Q0.52 3.88 3.34 1.94Q6.16 0 10 0L10 0Q14.76 0 19.20 2.40L19.20 2.40L19.20 10.08Q17.84 10.32 16.92 10.08L16.92 10.08L15.64 3.16Q13.08 1.76 9.92 1.76L9.92 1.76Q7.80 1.76 6.34 3.02Q4.88 4.28 4.88 6.56L4.88 6.56Q4.88 7.84 5.04 8.56Q5.20 9.28 5.84 10.26Q6.48 11.24 7.96 12.22Q9.44 13.20 11.92 14.40L11.92 14.40Q20.48 18.56 20.48 24.32L20.48 24.32Q20.48 28.40 17.36 30.92Q14.24 33.44 9.20 33.44L9.20 33.44Q4.20 33.44 0 31.08L0 31.08L0 23.40Q1.36 23.16 2.28 23.40L2.28 23.40ZM28.48 26.16L28.48 26.16L28.48 2.56L25.24 2.12Q25 1.40 25.24 0.68L25.24 0.68L30.72 0.80L46.88 0.80L46.92 10.08Q46.04 10.24 45.44 10.08L45.44 10.08L43.56 2.84L32.76 2.84L32.76 14.84L39.16 14.72L40.08 10.80Q40.68 10.64 41.56 10.80L41.56 10.80Q41.40 13.04 41.40 15.96L41.40 15.96Q41.40 18.64 41.52 21.16L41.52 21.16Q40.80 21.40 40.08 21.16L40.08 21.16L39.20 17L32.76 16.88L32.76 30.60L44.76 30.60L46.64 23.36Q47.24 23.20 48.12 23.36L48.12 23.36L48.08 32.64L30.72 32.64L25 32.76Q24.76 32.04 25 31.32L25 31.32L28.32 30.88Q28.48 28.84 28.48 26.16ZM52.40 0.68L52.40 0.68Q54.04 0.68 57.62 0.52Q61.20 0.36 64.12 0.36L64.12 0.36Q70.20 0.36 72.80 2.78Q75.40 5.20 75.40 9.52L75.40 9.52Q75.40 12.12 73.60 14.20Q71.80 16.28 68.88 17.32L68.88 17.32Q70.60 20.24 72.10 22.80Q73.60 25.36 74.28 26.60Q74.96 27.84 75.52 28.82Q76.08 29.80 76.34 30.16Q76.60 30.52 76.84 30.76L76.84 30.76L79.72 31.16Q79.88 31.76 79.72 32.64L79.72 32.64L72.92 32.64L66.88 21.68Q65.68 19.40 64.60 18.16L64.60 18.16L64.04 18.16Q62 18.16 59.92 17.92L59.92 17.92L59.92 30.88L63.56 31.28Q63.72 31.88 63.56 32.76L63.56 32.76Q61.04 32.64 57.88 32.64L57.88 32.64Q55.52 32.64 52.16 32.72L52.16 32.72Q51.92 32 52.16 31.28L52.16 31.28L55.48 30.80Q55.64 29.28 55.64 26.12L55.64 26.12L55.64 2.56L52.40 2.16Q52.24 1.56 52.40 0.68ZM59.92 7.32L59.92 7.32L59.92 16.28Q61.16 16.44 63.52 16.44L63.52 16.44Q65.56 16.44 67.02 15.78Q68.48 15.12 69.20 14.02Q69.92 12.92 70.24 11.76Q70.56 10.60 70.56 9.32L70.56 9.32Q70.56 5.88 68.84 3.96Q67.12 2.04 63.12 2.04L63.12 2.04Q61.64 2.04 60.16 2.32L60.16 2.32Q59.92 4.60 59.92 7.32ZM94.08 27.76L94.08 27.76L94.12 27.76Q94.60 25.88 95.68 22.84L95.68 22.84L102.96 2.56L99.72 2.16Q99.56 1.56 99.72 0.68L99.72 0.68Q101.92 0.84 103.96 0.84L103.96 0.84Q105.72 0.84 108.28 0.72L108.28 0.72Q108.52 1.44 108.28 2.16L108.28 2.16L105.64 2.64Q105 3.60 104.04 6.20L104.04 6.20L93.72 33.84L92.32 33.84L80.48 2.56L77.24 2.16Q77.08 1.56 77.24 0.68L77.24 0.68Q79.44 0.84 82.92 0.84L82.92 0.84Q86.04 0.84 88.64 0.72L88.64 0.72Q88.88 1.44 88.64 2.16L88.64 2.16L85.32 2.64L92.64 22.84Q93.48 25.28 94.08 27.76ZM117.52 7.32L117.52 7.32L117.52 30.88L120.76 31.28Q120.92 31.88 120.76 32.76L120.76 32.76Q118.24 32.64 115.28 32.64L115.28 32.64Q113.12 32.64 109.76 32.72L109.76 32.72Q109.52 32 109.76 31.28L109.76 31.28L113.08 30.80Q113.24 29.28 113.24 26.12L113.24 26.12L113.24 2.56L110 2.16Q109.84 1.56 110 0.68L110 0.68Q112.20 0.84 115.48 0.84L115.48 0.84Q118.40 0.84 121 0.72L121 0.72Q121.24 1.44 121 2.16L121 2.16L117.68 2.64Q117.52 4.16 117.52 7.32ZM147.32 2.84L129.52 30.60L144.52 30.60L146.40 23.36Q147 23.20 147.88 23.36L147.88 23.36L147.84 32.64L124.64 32.64Q124.36 31.40 124.64 30.60L124.64 30.60L142.68 2.84L128.88 2.84L127 10.08Q126.40 10.24 125.52 10.08L125.52 10.08L125.56 0.80L147.32 0.80Q147.60 1.68 147.32 2.84L147.32 2.84ZM159.64 7.32L159.64 7.32L159.64 30.88L162.88 31.28Q163.04 31.88 162.88 32.76L162.88 32.76Q160.36 32.64 157.40 32.64L157.40 32.64Q155.24 32.64 151.88 32.72L151.88 32.72Q151.64 32 151.88 31.28L151.88 31.28L155.20 30.80Q155.36 29.28 155.36 26.12L155.36 26.12L155.36 2.56L152.12 2.16Q151.96 1.56 152.12 0.68L152.12 0.68Q154.32 0.84 157.60 0.84L157.60 0.84Q160.52 0.84 163.12 0.72L163.12 0.72Q163.36 1.44 163.12 2.16L163.12 2.16L159.80 2.64Q159.64 4.16 159.64 7.32Z" transform="translate(12 356.364) scale(1)"></path></svg>